<svg id="svg" version="1.1" xmlns="http://www.w3.org/2000/svg" xmlns:xlink="http://www.w3.org/1999/xlink" width="400" height="400" viewBox="0, 0, 400,400"><g id="svgg"><path id="path0" d="M218.298 54.768 C 169.499 58.112,143.499 84.861,142.120 133.141 L 141.953 138.964 167.939 138.964 L 193.924 138.964 194.066 130.966 C 194.326 116.308,196.702 108.737,203.240 101.736 C 214.827 89.329,239.738 89.180,251.514 101.447 C 258.693 108.924,261.283 117.525,261.290 133.909 L 261.292 138.964 268.458 138.964 L 275.624 138.964 275.624 135.125 L 275.624 131.286 280.359 131.286 L 285.095 131.286 285.030 100.909 L 284.965 70.531 282.022 68.548 C 266.718 58.238,242.883 53.084,218.298 54.768 M13.052 98.145 L 13.052 138.964 71.657 138.964 L 130.262 138.964 130.262 130.774 L 130.262 122.585 96.993 122.585 L 63.724 122.585 63.724 108.893 L 63.724 95.202 102.367 95.202 L 141.011 95.202 141.011 76.264 L 141.011 57.326 77.031 57.326 L 13.052 57.326 13.052 98.145 M287.590 101.983 L 287.656 131.286 292.261 131.286 C 295.138 131.286,296.877 131.382,296.897 131.542 C 296.915 131.683,296.958 131.913,296.993 132.054 C 297.028 132.194,297.071 133.807,297.089 135.637 L 297.121 138.964 305.223 138.964 L 313.325 138.964 313.152 133.583 C 312.404 110.313,306.978 93.962,295.503 80.396 C 293.872 78.468,287.987 72.681,287.658 72.681 C 287.584 72.681,287.554 85.867,287.590 101.983 M278.098 133.760 C 278.004 133.854,277.927 135.063,277.927 136.447 L 277.927 138.964 281.510 138.964 L 285.093 138.964 285.093 136.276 L 285.093 133.589 281.681 133.589 C 279.804 133.589,278.192 133.666,278.098 133.760 M287.652 136.276 L 287.652 138.964 291.107 138.964 L 294.562 138.964 294.562 136.276 L 294.562 133.589 291.107 133.589 L 287.652 133.589 287.652 136.276 M13.052 178.503 L 13.052 215.739 38.387 215.739 L 63.721 215.739 63.786 187.268 L 63.852 158.797 97.057 158.732 L 130.262 158.667 130.262 149.967 L 130.262 141.267 71.657 141.267 L 13.052 141.267 13.052 178.503 M142.199 143.378 C 143.448 166.074,149.960 182.991,162.347 195.713 C 165.674 199.130,165.124 199.018,166.972 196.659 C 174.113 187.543,187.149 180.242,203.290 176.321 C 208.125 175.146,207.825 175.363,206.263 174.172 C 198.775 168.462,194.567 158.543,194.066 145.425 L 193.907 141.267 167.995 141.267 L 142.083 141.267 142.199 143.378 M261.099 146.321 C 260.417 157.985,257.538 165.461,251.274 171.835 C 250.036 173.095,249.049 174.140,249.080 174.158 C 249.111 174.176,250.518 174.389,252.207 174.631 C 263.435 176.239,276.157 180.780,284.261 186.072 L 285.093 186.615 285.093 168.035 L 285.093 149.456 280.358 149.456 L 275.624 149.456 275.624 145.361 L 275.624 141.267 268.509 141.267 L 261.395 141.267 261.099 146.321 M277.983 144.146 L 278.055 147.025 281.574 147.096 L 285.093 147.167 285.093 144.217 L 285.093 141.267 281.502 141.267 L 277.910 141.267 277.983 144.146 M287.652 144.338 L 287.652 147.153 291.107 147.153 L 294.562 147.153 294.562 144.338 L 294.562 141.523 291.107 141.523 L 287.652 141.523 287.652 144.338 M297.121 145.085 C 297.121 149.923,297.643 149.456,292.231 149.456 L 287.652 149.456 287.657 168.970 L 287.663 188.484 288.699 189.217 C 289.268 189.620,290.746 190.912,291.982 192.089 L 294.230 194.228 296.251 191.784 C 306.090 179.893,311.959 163.325,312.901 144.786 L 313.067 141.523 305.094 141.523 L 297.121 141.523 297.121 145.085 M223.800 177.255 C 192.822 179.619,172.342 190.234,164.854 207.806 C 162.133 214.192,161.355 218.645,161.369 227.767 C 161.391 242.476,164.892 250.952,174.536 259.641 C 184.349 268.483,194.580 272.461,224.568 279.093 C 249.899 284.696,254.490 287.009,254.505 294.178 C 254.519 300.151,250.510 302.971,240.309 304.168 C 235.999 304.673,227.483 304.660,223.961 304.143 C 211.930 302.376,207.806 298.413,206.737 287.588 L 206.440 284.581 182.554 284.581 L 158.669 284.581 158.672 287.204 C 158.677 292.247,159.804 300.049,161.157 304.415 L 161.633 305.950 223.363 306.015 L 285.093 306.079 285.093 277.914 L 285.093 249.748 281.702 248.107 C 274.638 244.688,261.700 241.028,242.354 236.977 C 219.090 232.105,213.611 229.374,213.232 222.461 C 212.879 216.038,219.775 212.002,232.009 211.470 C 245.524 210.883,253.858 216.398,254.564 226.396 L 254.715 228.535 269.904 228.535 L 285.093 228.535 285.093 209.879 L 285.093 191.223 282.726 189.698 C 272.744 183.265,260.928 179.422,245.899 177.718 C 242.415 177.324,227.106 177.002,223.800 177.255 M322.201 242.994 L 322.201 306.078 334.613 306.078 L 347.025 306.078 347.025 242.994 L 347.025 179.910 334.613 179.910 L 322.201 179.910 322.201 242.994 M349.584 242.994 L 349.584 306.078 361.228 306.078 L 372.873 306.078 372.873 242.994 L 372.873 179.910 361.228 179.910 L 349.584 179.910 349.584 242.994 M287.652 210.995 L 287.652 228.535 294.985 228.535 L 302.319 228.535 302.158 224.995 C 301.695 214.812,299.176 207.041,294.097 200.128 C 292.643 198.148,288.891 194.126,288.100 193.698 C 287.675 193.469,287.652 194.370,287.652 210.995 M229.670 215.481 C 226.475 215.749,223.084 216.538,221.166 217.460 L 219.706 218.161 221.753 218.374 C 225.466 218.760,244.022 217.996,244.584 217.433 C 244.633 217.384,244.070 217.085,243.333 216.767 C 240.627 215.603,234.775 215.052,229.670 215.481 M287.624 251.922 C 287.608 252.149,287.595 252.566,287.595 252.847 C 287.595 253.129,287.608 265.221,287.624 279.718 L 287.652 306.078 295.575 306.078 L 303.497 306.078 304.004 304.351 C 308.535 288.902,307.018 273.049,300.039 262.938 C 297.364 259.062,287.721 250.506,287.624 251.922 M163.018 309.656 C 170.987 329.875,196.191 340.672,235.573 340.740 C 256.103 340.775,270.573 337.575,283.104 330.228 L 285.093 329.062 285.093 318.722 L 285.093 308.381 223.804 308.381 L 162.515 308.381 163.018 309.656 M287.594 317.325 C 287.505 328.637,287.202 327.797,290.410 325.119 C 295.283 321.052,302.495 311.197,302.495 308.606 C 302.495 308.482,299.158 308.381,295.080 308.381 L 287.665 308.381 287.594 317.325 M322.201 323.225 L 322.201 338.068 334.613 338.068 L 347.025 338.068 347.025 323.225 L 347.025 308.381 334.613 308.381 L 322.201 308.381 322.201 323.225 M349.584 323.225 L 349.584 338.068 361.228 338.068 L 372.873 338.068 372.873 323.225 L 372.873 308.381 361.228 308.381 L 349.584 308.381 349.584 323.225 " stroke="none" fill="#0c0c0c" fill-rule="evenodd"></path><path id="path1" d="M285.349 20.154 C 285.349 31.238,285.272 60.777,285.178 85.797 L 285.008 131.286 280.316 131.286 L 275.624 131.286 275.624 135.125 L 275.624 138.964 268.463 138.964 L 261.302 138.964 261.228 133.141 L 261.154 127.319 261.095 133.141 L 261.036 138.964 137.045 138.964 L 13.053 138.964 12.988 98.081 L 12.922 57.198 12.859 98.081 L 12.796 138.964 6.398 138.964 L 0.000 138.964 0.000 140.115 L 0.000 141.267 6.397 141.267 L 12.794 141.267 12.860 178.567 L 12.926 215.867 12.989 178.567 L 13.052 141.267 137.034 141.267 L 261.017 141.267 261.102 143.506 L 261.187 145.745 261.240 143.506 L 261.292 141.267 268.458 141.267 L 275.624 141.267 275.624 145.361 L 275.624 149.456 280.358 149.456 L 285.093 149.456 285.090 168.202 C 285.088 178.512,285.113 201.056,285.145 218.298 C 285.177 235.541,285.178 262.345,285.148 277.864 L 285.093 306.080 223.353 306.078 C 189.395 306.077,125.250 306.076,80.806 306.077 L 0.000 306.078 0.000 307.230 L 0.000 308.381 142.504 308.381 L 285.009 308.381 285.179 323.928 C 285.272 332.479,285.348 353.093,285.348 369.738 L 285.349 400.000 286.372 400.000 L 287.396 400.000 287.446 363.724 C 287.473 343.772,287.520 327.159,287.550 326.807 C 287.580 326.456,287.615 322.166,287.628 317.274 L 287.652 308.381 317.296 308.381 L 346.941 308.381 347.111 330.838 C 347.204 343.189,347.281 363.804,347.281 376.647 L 347.281 400.000 348.305 400.000 L 349.328 400.000 349.328 376.647 C 349.328 363.804,349.405 343.189,349.499 330.838 L 349.668 308.381 374.834 308.381 L 400.000 308.381 400.000 307.230 L 400.000 306.078 374.792 306.078 L 349.584 306.078 349.584 242.997 L 349.584 179.916 361.292 179.846 L 373.001 179.777 361.164 179.716 L 349.328 179.655 349.328 160.589 L 349.328 141.523 374.664 141.523 L 400.000 141.523 400.000 140.243 L 400.000 138.964 374.664 138.964 L 349.328 138.964 349.328 83.805 C 349.328 35.012,349.373 28.630,349.712 28.499 C 350.047 28.371,350.096 26.541,350.096 14.176 L 350.096 0.000 348.688 0.000 L 347.281 0.000 347.281 69.482 L 347.281 138.964 322.201 138.964 L 297.121 138.964 297.089 135.637 C 297.071 133.807,297.028 132.194,296.993 132.054 C 296.958 131.913,296.915 131.683,296.897 131.542 C 296.877 131.382,295.138 131.286,292.258 131.286 L 287.652 131.286 287.620 102.111 C 287.602 86.065,287.559 72.821,287.524 72.681 C 287.489 72.540,287.446 56.129,287.428 36.212 L 287.396 0.000 286.372 0.000 L 285.349 0.000 285.349 20.154 M225.656 92.567 C 225.972 92.628,226.491 92.628,226.807 92.567 C 227.124 92.506,226.865 92.456,226.232 92.456 C 225.598 92.456,225.339 92.506,225.656 92.567 M228.218 92.567 C 228.536 92.629,228.997 92.626,229.242 92.562 C 229.486 92.498,229.226 92.448,228.663 92.451 C 228.100 92.454,227.900 92.506,228.218 92.567 M194.056 126.424 C 194.056 127.057,194.106 127.316,194.167 126.999 C 194.228 126.683,194.228 126.164,194.167 125.848 C 194.106 125.531,194.056 125.790,194.056 126.424 M313.047 131.286 C 313.047 131.779,313.100 131.980,313.164 131.734 C 313.229 131.488,313.229 131.084,313.164 130.838 C 313.100 130.592,313.047 130.793,313.047 131.286 M285.093 136.276 L 285.093 138.964 281.510 138.964 L 277.927 138.964 277.927 136.447 C 277.927 133.348,277.610 133.589,281.681 133.589 L 285.093 133.589 285.093 136.276 M294.562 136.276 L 294.562 138.964 291.107 138.964 L 287.652 138.964 287.652 136.276 L 287.652 133.589 291.107 133.589 L 294.562 133.589 294.562 136.276 M285.093 144.217 L 285.093 147.167 281.574 147.096 L 278.055 147.025 277.983 144.146 L 277.910 141.267 281.502 141.267 L 285.093 141.267 285.093 144.217 M294.562 144.338 L 294.562 147.153 291.107 147.153 L 287.652 147.153 287.652 144.338 L 287.652 141.523 291.107 141.523 L 294.562 141.523 294.562 144.338 M313.018 141.971 C 313.046 142.397,313.053 142.397,313.164 141.971 C 313.274 141.550,314.306 141.523,330.281 141.523 L 347.281 141.523 347.281 160.589 L 347.281 179.655 334.677 179.716 L 322.073 179.777 334.549 179.846 L 347.025 179.915 347.025 242.997 L 347.025 306.078 317.338 306.078 L 287.652 306.078 287.628 279.782 C 287.614 265.320,287.571 252.911,287.530 252.207 C 287.307 248.323,287.759 193.507,288.013 193.631 C 288.166 193.706,288.119 193.615,287.908 193.429 C 287.571 193.132,287.535 190.419,287.611 171.273 L 287.698 149.456 292.254 149.456 C 297.639 149.456,297.121 149.922,297.121 145.085 L 297.121 141.523 305.054 141.523 C 312.428 141.523,312.990 141.554,313.018 141.971 M194.056 146.385 C 194.056 147.019,194.106 147.278,194.167 146.961 C 194.228 146.644,194.228 146.126,194.167 145.809 C 194.106 145.493,194.056 145.752,194.056 146.385 M80.402 158.861 C 89.505 158.898,104.477 158.898,113.672 158.861 C 122.867 158.824,115.419 158.793,97.121 158.793 C 78.823 158.793,71.299 158.824,80.402 158.861 M162.764 196.417 C 163.671 197.332,164.470 198.081,164.541 198.081 C 164.611 198.081,163.927 197.332,163.020 196.417 C 162.113 195.502,161.314 194.754,161.243 194.754 C 161.173 194.754,161.857 195.502,162.764 196.417 M230.518 215.408 C 230.835 215.469,231.353 215.469,231.670 215.408 C 231.987 215.347,231.727 215.297,231.094 215.297 C 230.461 215.297,230.202 215.347,230.518 215.408 M232.438 218.475 C 232.684 218.539,233.087 218.539,233.333 218.475 C 233.580 218.410,233.378 218.358,232.885 218.358 C 232.393 218.358,232.191 218.410,232.438 218.475 M161.065 227.255 C 161.065 228.592,161.108 229.139,161.161 228.471 C 161.213 227.802,161.213 226.708,161.161 226.040 C 161.108 225.371,161.065 225.918,161.065 227.255 M170.441 255.742 C 170.441 255.786,170.816 256.161,171.273 256.574 L 172.105 257.326 171.353 256.494 C 170.653 255.719,170.441 255.545,170.441 255.742 M158.473 285.349 C 158.473 285.841,158.525 286.043,158.590 285.797 C 158.654 285.550,158.654 285.147,158.590 284.901 C 158.525 284.655,158.473 284.856,158.473 285.349 M206.596 285.861 C 206.596 286.494,206.646 286.753,206.707 286.436 C 206.768 286.120,206.768 285.601,206.707 285.285 C 206.646 284.968,206.596 285.227,206.596 285.861 M226.296 304.463 C 226.542 304.527,226.945 304.527,227.191 304.463 C 227.438 304.399,227.236 304.346,226.743 304.346 C 226.251 304.346,226.049 304.399,226.296 304.463 M170.697 321.817 C 171.175 322.310,171.623 322.713,171.693 322.713 C 171.764 322.713,171.431 322.310,170.953 321.817 C 170.476 321.324,170.028 320.921,169.957 320.921 C 169.887 320.921,170.220 321.324,170.697 321.817 M228.343 340.803 C 228.589 340.868,228.992 340.868,229.239 340.803 C 229.485 340.739,229.283 340.686,228.791 340.686 C 228.298 340.686,228.097 340.739,228.343 340.803 M243.061 340.808 C 243.380 340.869,243.840 340.867,244.085 340.803 C 244.330 340.739,244.069 340.689,243.506 340.692 C 242.943 340.694,242.743 340.747,243.061 340.808 " stroke="none" fill="#747474" fill-rule="evenodd"></path><path id="path2" d="M0.000 69.482 L 0.000 138.964 6.398 138.964 L 12.796 138.964 12.796 98.017 L 12.796 57.070 76.903 57.070 L 141.011 57.070 141.011 76.264 L 141.011 95.457 102.495 95.457 L 63.980 95.457 63.980 108.893 L 63.980 122.329 97.121 122.329 L 130.262 122.329 130.262 130.646 L 130.262 138.964 136.089 138.964 L 141.915 138.964 141.973 134.421 C 142.401 101.184,154.695 77.892,178.651 64.932 C 207.534 49.307,258.659 51.293,282.917 68.982 C 283.340 69.290,284.002 69.743,284.389 69.989 L 285.093 70.436 285.093 35.218 L 285.093 0.000 142.546 0.000 L 0.000 0.000 0.000 69.482 M287.653 36.276 L 287.653 72.553 289.854 74.467 C 304.546 87.247,312.533 107.179,313.163 132.630 L 313.320 138.964 330.173 138.964 L 347.025 138.964 347.025 69.482 L 347.025 0.000 317.338 0.000 L 287.652 0.000 287.653 36.276 M350.096 14.331 C 350.096 23.715,350.008 28.663,349.840 28.663 C 349.670 28.663,349.584 47.217,349.584 83.813 L 349.584 138.964 374.792 138.964 L 400.000 138.964 400.000 69.482 L 400.000 0.000 375.048 0.000 L 350.096 0.000 350.096 14.331 M221.224 93.024 C 206.340 95.356,198.034 103.858,194.849 120.026 C 194.520 121.693,194.393 124.157,194.305 130.582 L 194.190 138.964 227.613 138.964 L 261.036 138.964 261.036 132.195 C 261.036 117.871,258.806 110.131,252.502 102.579 C 246.159 94.980,233.476 91.105,221.224 93.024 M0.000 223.672 L 0.000 306.078 80.770 306.078 C 157.588 306.078,161.531 306.056,161.367 305.630 C 159.875 301.754,157.782 286.594,158.486 284.761 C 158.643 284.350,160.185 284.327,182.654 284.388 L 206.654 284.453 206.822 286.850 C 207.749 300.023,213.977 304.340,232.118 304.380 C 247.567 304.415,253.951 301.616,254.331 294.641 C 254.725 287.402,249.844 284.797,226.104 279.579 C 192.164 272.120,182.030 267.881,171.400 256.700 C 156.583 241.114,157.360 211.404,172.993 195.770 C 195.249 173.513,252.802 170.150,282.484 189.372 C 283.794 190.221,284.917 190.915,284.979 190.915 C 285.042 190.915,285.093 189.964,285.093 188.801 L 285.093 186.687 283.109 185.507 C 273.996 180.087,263.835 176.545,252.344 174.784 C 250.449 174.493,248.865 174.222,248.824 174.181 C 248.783 174.140,249.320 173.626,250.018 173.037 C 256.838 167.286,261.036 156.307,261.036 144.220 L 261.036 141.267 227.603 141.267 L 194.170 141.267 194.323 146.065 C 194.722 158.551,198.862 168.291,206.167 173.926 C 207.058 174.614,207.790 175.234,207.794 175.304 C 207.798 175.374,206.104 175.816,204.029 176.285 C 188.091 179.888,174.455 187.432,167.103 196.715 C 166.229 197.818,165.431 198.753,165.328 198.793 C 165.040 198.906,159.737 193.292,157.859 190.887 C 148.658 179.104,143.508 164.232,142.248 145.809 L 141.938 141.267 136.100 141.267 L 130.262 141.267 130.262 150.096 L 130.262 158.925 97.122 158.925 L 63.982 158.925 63.917 187.396 L 63.852 215.867 38.388 215.867 L 12.924 215.867 12.859 178.567 L 12.794 141.267 6.397 141.267 L 0.000 141.267 0.000 223.672 M313.123 144.018 C 311.692 165.228,305.464 182.252,295.101 193.284 L 294.197 194.246 292.780 192.872 C 292.001 192.115,290.557 190.842,289.571 190.041 L 287.780 188.586 287.706 190.748 L 287.633 192.911 290.138 195.443 C 298.002 203.392,301.770 212.416,302.166 224.248 L 302.310 228.535 294.981 228.535 L 287.652 228.535 287.652 239.877 L 287.652 251.219 290.456 253.316 C 301.872 261.857,306.630 271.590,306.615 286.372 C 306.609 292.774,306.026 297.437,304.550 302.879 C 304.130 304.427,303.784 305.781,303.781 305.886 C 303.777 305.992,307.863 306.078,312.860 306.078 L 321.945 306.078 321.945 242.866 L 321.945 179.655 334.485 179.655 L 347.025 179.655 347.025 160.589 L 347.025 141.523 330.158 141.523 L 313.292 141.523 313.123 144.018 M349.584 160.589 L 349.584 179.655 361.356 179.655 L 373.129 179.655 373.129 242.866 L 373.129 306.078 386.564 306.078 L 400.000 306.078 400.000 223.800 L 400.000 141.523 374.792 141.523 L 349.584 141.523 349.584 160.589 M226.871 212.002 C 216.284 213.744,210.973 219.303,214.003 225.472 C 216.360 230.271,222.244 232.611,242.866 236.952 C 263.222 241.237,275.087 244.632,282.223 248.213 C 283.655 248.932,284.887 249.520,284.960 249.520 C 285.033 249.520,285.093 244.798,285.093 239.028 L 285.093 228.535 269.738 228.535 L 254.383 228.535 254.383 226.802 C 254.383 220.065,249.478 214.366,241.971 212.379 C 239.359 211.688,230.173 211.458,226.871 212.002 M240.841 215.828 C 247.841 217.549,244.709 218.249,228.963 218.483 C 219.057 218.631,218.541 218.555,221.151 217.331 C 225.368 215.355,235.706 214.566,240.841 215.828 M0.000 354.191 L 0.000 400.000 142.546 400.000 L 285.093 400.000 285.093 364.683 C 285.093 345.259,285.021 329.367,284.934 329.367 C 284.847 329.367,284.127 329.757,283.335 330.234 C 269.110 338.801,247.639 342.461,222.905 340.536 C 190.453 338.009,170.342 327.796,163.114 310.174 L 162.380 308.383 81.190 308.382 L 0.000 308.381 0.000 354.191 M301.602 310.876 C 299.031 316.303,293.969 322.625,289.409 326.102 L 287.652 327.442 287.652 363.721 L 287.652 400.000 317.338 400.000 L 347.025 400.000 347.025 369.162 L 347.025 338.324 334.485 338.324 L 321.945 338.324 321.945 323.353 L 321.945 308.381 312.364 308.381 L 302.784 308.381 301.602 310.876 M373.129 323.353 L 373.129 338.324 361.356 338.324 L 349.584 338.324 349.584 369.162 L 349.584 400.000 374.792 400.000 L 400.000 400.000 400.000 354.191 L 400.000 308.381 386.564 308.381 L 373.129 308.381 373.129 323.353 " stroke="none" fill="#fbfbfb" fill-rule="evenodd"></path><path id="path3" d="M347.151 69.482 C 347.151 107.767,347.181 123.391,347.217 104.202 C 347.253 85.013,347.253 53.688,347.217 34.592 C 347.181 15.496,347.151 31.196,347.151 69.482 M287.518 50.544 C 287.518 62.649,287.550 67.563,287.588 61.465 C 287.626 55.367,287.626 45.463,287.588 39.456 C 287.550 33.449,287.518 38.439,287.518 50.544 M349.454 83.813 C 349.454 114.216,349.484 126.616,349.520 111.368 C 349.557 96.120,349.557 71.245,349.520 56.090 C 349.484 40.934,349.454 53.410,349.454 83.813 M227.063 54.431 C 227.310 54.495,227.713 54.495,227.959 54.431 C 228.205 54.367,228.004 54.314,227.511 54.314 C 227.019 54.314,226.817 54.367,227.063 54.431 M163.267 76.200 L 161.868 77.671 163.340 76.272 C 164.149 75.503,164.811 74.841,164.811 74.801 C 164.811 74.611,164.567 74.833,163.267 76.200 M292.258 76.903 C 293.165 77.818,293.965 78.567,294.035 78.567 C 294.105 78.567,293.421 77.818,292.514 76.903 C 291.608 75.988,290.808 75.240,290.738 75.240 C 290.667 75.240,291.352 75.988,292.258 76.903 M63.841 95.521 C 63.774 95.697,63.749 101.830,63.787 109.149 L 63.856 122.457 63.918 108.958 L 63.980 95.459 102.559 95.393 L 141.139 95.328 102.551 95.265 C 71.870 95.214,63.938 95.267,63.841 95.521 M194.095 133.589 C 194.095 136.615,194.132 137.853,194.177 136.340 C 194.222 134.827,194.222 132.351,194.177 130.838 C 194.132 129.325,194.095 130.563,194.095 133.589 M141.843 136.532 C 141.846 137.095,141.898 137.296,141.960 136.977 C 142.021 136.659,142.019 136.198,141.954 135.954 C 141.890 135.709,141.840 135.969,141.843 136.532 M194.070 142.930 C 194.071 143.916,194.117 144.287,194.173 143.756 C 194.228 143.225,194.227 142.419,194.171 141.965 C 194.114 141.511,194.069 141.945,194.070 142.930 M347.147 160.589 C 347.147 171.145,347.178 175.501,347.217 170.268 C 347.255 165.036,347.255 156.398,347.217 151.075 C 347.178 145.751,347.147 150.032,347.147 160.589 M349.450 160.589 C 349.450 171.145,349.481 175.501,349.520 170.268 C 349.559 165.036,349.559 156.398,349.520 151.075 C 349.481 145.751,349.450 150.032,349.450 160.589 M63.786 187.267 L 63.724 215.736 38.324 215.803 L 12.924 215.869 38.332 215.932 C 58.469 215.982,63.765 215.929,63.862 215.675 C 63.929 215.499,63.953 202.630,63.916 187.076 L 63.849 158.797 63.786 187.267 M202.431 170.522 C 202.431 170.566,202.806 170.940,203.263 171.353 L 204.095 172.105 203.343 171.273 C 202.642 170.498,202.431 170.324,202.431 170.522 M228.721 177.024 C 229.175 177.081,229.982 177.082,230.513 177.026 C 231.043 176.971,230.672 176.925,229.687 176.923 C 228.701 176.922,228.267 176.968,228.721 177.024 M233.584 177.024 C 234.038 177.081,234.844 177.082,235.375 177.026 C 235.906 176.971,235.534 176.925,234.549 176.923 C 233.564 176.922,233.129 176.968,233.584 177.024 M372.999 242.738 C 372.999 277.505,373.028 291.689,373.065 274.260 C 373.101 256.830,373.101 228.385,373.065 211.048 C 373.028 193.711,372.999 207.972,372.999 242.738 M287.488 190.659 C 287.488 191.996,287.531 192.543,287.584 191.875 C 287.637 191.206,287.637 190.112,287.584 189.443 C 287.531 188.775,287.488 189.322,287.488 190.659 M171.065 192.258 L 170.313 193.090 171.145 192.339 C 171.603 191.925,171.977 191.551,171.977 191.507 C 171.977 191.309,171.766 191.483,171.065 192.258 M289.443 194.882 C 289.921 195.374,290.369 195.777,290.439 195.777 C 290.510 195.777,290.177 195.374,289.699 194.882 C 289.222 194.389,288.774 193.986,288.703 193.986 C 288.633 193.986,288.966 194.389,289.443 194.882 M233.084 211.576 C 233.686 211.630,234.607 211.629,235.132 211.574 C 235.656 211.519,235.163 211.475,234.037 211.476 C 232.911 211.477,232.482 211.522,233.084 211.576 M254.452 227.511 C 254.452 228.145,254.502 228.404,254.563 228.087 C 254.624 227.770,254.624 227.252,254.563 226.935 C 254.502 226.619,254.452 226.878,254.452 227.511 M287.453 239.844 C 287.422 246.135,287.482 251.335,287.588 251.400 C 287.763 251.508,287.759 242.970,287.580 232.502 C 287.542 230.250,287.485 233.554,287.453 239.844 M161.037 230.966 C 161.040 231.529,161.092 231.729,161.153 231.411 C 161.215 231.093,161.212 230.632,161.148 230.387 C 161.084 230.143,161.034 230.403,161.037 230.966 M296.097 258.349 C 296.862 259.123,297.545 259.757,297.615 259.757 C 297.686 259.757,297.118 259.123,296.353 258.349 C 295.589 257.575,294.906 256.942,294.835 256.942 C 294.765 256.942,295.333 257.575,296.097 258.349 M170.653 284.517 C 177.314 284.555,188.139 284.555,194.709 284.517 C 201.279 284.479,195.829 284.448,182.598 284.448 C 169.367 284.448,163.991 284.479,170.653 284.517 M158.478 288.036 C 158.481 288.599,158.533 288.799,158.594 288.481 C 158.656 288.162,158.653 287.702,158.589 287.457 C 158.525 287.212,158.475 287.473,158.478 288.036 M228.218 304.468 C 228.536 304.529,228.997 304.527,229.242 304.462 C 229.486 304.398,229.226 304.348,228.663 304.351 C 228.100 304.354,227.900 304.406,228.218 304.468 M372.993 323.353 C 372.993 331.657,373.025 335.017,373.064 330.820 C 373.104 326.622,373.104 319.828,373.064 315.721 C 373.025 311.614,372.993 315.048,372.993 323.353 M287.521 363.788 C 287.521 383.775,287.551 391.914,287.588 381.874 C 287.625 371.834,287.625 355.481,287.588 345.533 C 287.551 335.586,287.521 343.800,287.521 363.788 M347.149 369.162 C 347.149 386.193,347.179 393.198,347.217 384.729 C 347.254 376.259,347.254 362.324,347.217 353.763 C 347.179 345.201,347.149 352.131,347.149 369.162 M349.452 369.162 C 349.452 386.193,349.483 393.198,349.520 384.729 C 349.558 376.259,349.558 362.324,349.520 353.763 C 349.483 345.201,349.452 352.131,349.452 369.162 M233.471 341.072 C 234.285 341.123,235.552 341.123,236.286 341.071 C 237.020 341.020,236.353 340.978,234.805 340.979 C 233.257 340.979,232.656 341.021,233.471 341.072 " stroke="none" fill="#9a9a9c" fill-rule="evenodd"></path><path id="path4" d="M285.031 35.317 C 284.994 54.741,285.051 70.633,285.157 70.633 C 285.262 70.633,285.349 54.741,285.349 35.317 C 285.349 15.893,285.292 0.000,285.223 0.000 C 285.153 0.000,285.067 15.893,285.031 35.317 M287.516 14.331 C 287.516 22.284,287.548 25.537,287.588 21.561 C 287.627 17.585,287.627 11.078,287.588 7.102 C 287.548 3.125,287.516 6.379,287.516 14.331 M44.978 57.262 C 62.607 57.298,91.456 57.298,109.085 57.262 C 126.715 57.225,112.290 57.196,77.031 57.196 C 41.772 57.196,27.348 57.225,44.978 57.262 M80.422 122.521 C 89.536 122.558,104.450 122.558,113.564 122.521 C 122.678 122.484,115.221 122.453,96.993 122.453 C 78.765 122.453,71.308 122.484,80.422 122.521 M231.670 177.016 C 231.916 177.080,232.319 177.080,232.566 177.016 C 232.812 176.951,232.610 176.899,232.118 176.899 C 231.625 176.899,231.424 176.951,231.670 177.016 M322.071 242.994 C 322.071 277.761,322.101 291.945,322.137 274.516 C 322.173 257.086,322.173 228.641,322.137 211.304 C 322.101 193.967,322.071 208.228,322.071 242.994 M285.184 188.996 C 285.183 190.262,285.226 190.813,285.280 190.219 C 285.333 189.625,285.334 188.588,285.281 187.916 C 285.228 187.243,285.184 187.729,285.184 188.996 M285.210 239.155 C 285.210 245.067,285.244 247.449,285.284 244.449 C 285.325 241.448,285.325 236.611,285.284 233.700 C 285.243 230.789,285.210 233.244,285.210 239.155 M322.070 323.289 L 322.073 338.196 334.613 338.200 L 347.153 338.203 334.679 338.133 L 322.205 338.063 322.136 323.222 L 322.067 308.381 322.070 323.289 M285.217 364.555 C 285.217 384.120,285.248 392.086,285.285 382.258 C 285.322 372.429,285.322 356.421,285.285 346.685 C 285.248 336.949,285.217 344.990,285.217 364.555 M355.424 338.260 C 358.706 338.300,364.004 338.300,367.196 338.259 C 370.389 338.219,367.703 338.186,361.228 338.186 C 354.754 338.186,352.142 338.219,355.424 338.260 " stroke="none" fill="#848484" fill-rule="evenodd"></path></g></svg>